<!-- Generated by IcoMoon.io -->
<svg version="1.1" xmlns="http://www.w3.org/2000/svg" width="32" height="32" viewBox="0 0 32 32">
<title>alarm</title>
<path d="M30.778 11.639c-1.574-3.603-4.39-6.419-7.895-7.955l-0.098-0.038c0.97-0.763 2.19-1.222 3.519-1.222 3.146 0 5.696 2.55 5.696 5.696v0c0 0.001 0 0.002 0 0.003 0 1.333-0.46 2.559-1.231 3.527l0.009-0.012zM30.545 17.939c0 3.735-1.466 7.12-3.843 9.639l1.968 1.967c0.25 0.258 0.405 0.611 0.405 1 0 0.794-0.644 1.438-1.438 1.438-0.389 0-0.742-0.154-1.001-0.405l-2.114-2.112c-2.236 1.585-5.021 2.534-8.027 2.534-0.004 0-0.007 0-0.011 0h0.001c-0.003 0-0.008 0-0.012 0-3 0-5.78-0.945-8.058-2.554l0.044 0.029-2.097 2.097c-0.266 0.281-0.641 0.455-1.057 0.455-0.803 0-1.455-0.651-1.455-1.455 0-0.416 0.174-0.791 0.454-1.056l0.001-0.001 1.95-1.951c-2.369-2.517-3.831-5.899-3.831-9.627 0-7.765 6.295-14.061 14.061-14.061s14.061 6.295 14.061 14.061zM16.485 6.788c-6.159 0-11.152 4.992-11.152 11.151s4.993 11.151 11.152 11.151 11.152-4.994 11.152-11.151c0-6.16-4.993-11.152-11.151-11.152zM22.303 19.394h-5.818c-0.803 0-1.455-0.651-1.455-1.455v0-7.758c0-0.803 0.651-1.455 1.455-1.455s1.455 0.651 1.455 1.455v0 6.303h4.364c0.803 0 1.455 0.651 1.455 1.455s-0.651 1.455-1.455 1.455v0zM2.218 11.835c-0.778-0.976-1.248-2.228-1.248-3.59 0-0.001 0-0.002 0-0.003v0c0-3.213 2.605-5.818 5.818-5.818v0c1.358 0 2.604 0.468 3.594 1.248-3.68 1.607-6.556 4.483-8.125 8.063l-0.039 0.1z"></path>
</svg>
