<!-- Generated by IcoMoon.io -->
<svg version="1.1" xmlns="http://www.w3.org/2000/svg" width="32" height="32" viewBox="0 0 32 32">
<title>book</title>
<path d="M32.063 26.075l-14.032 5.806c-0.17 0.075-0.368 0.119-0.576 0.119s-0.406-0.044-0.585-0.123l0.009 0.004-14.031-5.806c-0.537-0.222-0.908-0.742-0.908-1.348 0-0 0-0 0-0v0-22.303c0.001-0.803 0.652-1.453 1.455-1.453 0.2 0 0.391 0.041 0.565 0.114l-0.010-0.004 0.003 0.001 0.013 0.005 13.489 5.581 13.505-5.587c0.164-0.070 0.355-0.11 0.556-0.11 0.803 0 1.454 0.651 1.455 1.454v0 22.303c0 0 0 0 0 0 0 0.606-0.37 1.125-0.897 1.344l-0.010 0.004zM16 9.214l-11.152-4.615v19.155l11.152 4.615v-19.154zM30.061 4.599l-11.152 4.616v19.154l11.151-4.616v-19.152zM21.217 11.281l5.333-2.424c0.172-0.077 0.373-0.123 0.584-0.123 0.803 0 1.455 0.651 1.455 1.455 0 0.578-0.338 1.078-0.827 1.312l-0.009 0.004-5.333 2.424c-0.172 0.077-0.373 0.123-0.584 0.123-0.803 0-1.455-0.651-1.455-1.455 0-0.578 0.338-1.078 0.827-1.312l0.009-0.004zM21.217 16.615l5.333-2.424c0.177-0.082 0.384-0.131 0.602-0.131 0.803 0 1.454 0.651 1.454 1.454 0 0 0 0 0 0.001v-0c0 0 0 0 0 0 0 0.585-0.346 1.090-0.844 1.321l-0.009 0.004-5.333 2.424c-0.167 0.072-0.361 0.114-0.565 0.114-0.803 0-1.455-0.651-1.455-1.455 0-0.571 0.329-1.065 0.807-1.303l0.008-0.004zM21.217 21.948l5.333-2.424c0.172-0.077 0.373-0.122 0.584-0.122 0.803 0 1.455 0.651 1.455 1.455 0 0.578-0.338 1.078-0.827 1.312l-0.009 0.004-5.333 2.424c-0.172 0.077-0.373 0.122-0.584 0.122-0.803 0-1.455-0.651-1.455-1.455 0-0.578 0.338-1.078 0.827-1.312l0.009-0.004zM7.758 8.727c0.214 0 0.418 0.047 0.601 0.13l5.333 2.424c0.492 0.24 0.825 0.737 0.825 1.311 0 0.803-0.651 1.455-1.455 1.455-0.207 0-0.404-0.043-0.582-0.121l0.009 0.004-5.333-2.424c-0.506-0.235-0.851-0.739-0.851-1.324 0-0.803 0.65-1.454 1.453-1.455h0zM7.758 14.061c0.214 0 0.418 0.047 0.601 0.13l5.333 2.424c0.531 0.225 0.896 0.741 0.896 1.343 0 0.803-0.651 1.455-1.455 1.455-0.235 0-0.456-0.056-0.653-0.154l0.008 0.004v0.001l-5.333-2.424c-0.506-0.235-0.851-0.739-0.851-1.324 0-0.803 0.65-1.454 1.453-1.455h0zM7.758 19.394c0.214 0 0.418 0.047 0.601 0.13l5.333 2.424c0.492 0.24 0.825 0.737 0.825 1.311 0 0.803-0.651 1.455-1.455 1.455-0.207 0-0.404-0.043-0.582-0.121l0.009 0.004-5.333-2.424c-0.506-0.235-0.851-0.739-0.851-1.324 0-0.803 0.65-1.454 1.453-1.455h0z"></path>
</svg>
