<!-- Generated by IcoMoon.io -->
<svg version="1.1" xmlns="http://www.w3.org/2000/svg" width="32" height="32" viewBox="0 0 32 32">
<title>computer</title>
<path d="M28.606 24.242h-9.212v2.424l1.939 1.939v0.485h-12.606v-0.485l1.939-1.939v-2.424h-9.212c-0.803 0-1.455-0.651-1.455-1.455v0-19.394c0-0.803 0.651-1.455 1.455-1.455v0h27.151c0.803 0 1.455 0.651 1.455 1.455v0 19.394c0 0.803-0.651 1.455-1.455 1.455v0zM28.121 3.879h-26.182v16.485h26.182v-16.485zM12.121 10.667c0.401 0 0.766 0.163 1.028 0.426l0.912 0.912 2.851-2.851c0.265-0.274 0.636-0.444 1.046-0.444 0.803 0 1.455 0.651 1.455 1.455 0 0.411-0.17 0.781-0.444 1.046l-3.879 3.879c-0.263 0.264-0.627 0.428-1.029 0.428s-0.766-0.164-1.029-0.428l-1.939-1.939c-0.263-0.263-0.425-0.627-0.425-1.028 0-0.803 0.651-1.454 1.454-1.455h0z"></path>
</svg>
