<!-- Generated by IcoMoon.io -->
<svg version="1.1" xmlns="http://www.w3.org/2000/svg" width="32" height="32" viewBox="0 0 32 32">
<title>home</title>
<path fill="#95e1d3" d="M32.97 17.455c0 0.803-0.651 1.455-1.455 1.455v0c-0.383-0.001-0.732-0.15-0.99-0.394l0.001 0.001-0.003 0.004-13.069-13.068-13.039 13.039c-0.263 0.261-0.625 0.423-1.026 0.423-0.803 0-1.455-0.651-1.455-1.455 0-0.414 0.173-0.788 0.451-1.053l14.018-14.020c0.265-0.274 0.636-0.446 1.047-0.446h0.002c0.025 0 0.050 0 0.077 0.002h0.012c0.031 0.002 0.055 0.005 0.079 0.008l-0.009-0.001c0.356 0.039 0.673 0.206 0.905 0.454l5.725 5.721v-1.335c0-0.803 0.651-1.455 1.455-1.455s1.455 0.651 1.455 1.455v0 4.245l5.428 5.428-0.004 0.004c0.242 0.26 0.394 0.606 0.394 0.989zM30.061 19.879v10.182c0 0.803-0.651 1.455-1.455 1.455v0h-2.909v-11.636h-5.818v11.636h-13.576c-0.803 0-1.455-0.651-1.455-1.455v0-10.182l12.606-12.606 12.606 12.606zM15.030 19.879h-5.818v5.818h5.818v-5.818z"></path>
</svg>
