<!-- Generated by IcoMoon.io -->
<svg version="1.1" xmlns="http://www.w3.org/2000/svg" width="32" height="32" viewBox="0 0 32 32">
<title>image</title>
<path d="M31.515 32h-28.121c-0.803 0-1.455-0.651-1.455-1.455v0-28.121c0-0.803 0.651-1.455 1.455-1.455v0h28.121c0.803 0 1.455 0.651 1.455 1.455v0 28.121c0 0.803-0.651 1.455-1.455 1.455v0zM30.061 3.879h-25.212v25.212h25.212v-25.212zM8.242 5.333h5.333c0.803 0 1.455 0.651 1.455 1.455s-0.651 1.455-1.455 1.455v0h-4.364v4.364c0 0.803-0.651 1.455-1.455 1.455s-1.455-0.651-1.455-1.455v0-7.273h1.939zM6.303 20.364c0-0.803 0.651-1.455 1.455-1.455s1.455 0.651 1.455 1.455v0 4.364h4.364c0.803 0 1.455 0.651 1.455 1.455s-0.651 1.455-1.455 1.455v0h-7.273v-7.273zM21.333 5.333h7.273v7.273c0 0.803-0.651 1.455-1.455 1.455s-1.455-0.651-1.455-1.455v0-4.364h-4.364c-0.803 0-1.455-0.651-1.455-1.455s0.651-1.455 1.455-1.455v0zM21.333 24.727h4.364v-4.364c0-0.803 0.651-1.455 1.455-1.455s1.455 0.651 1.455 1.455v0 7.273h-7.273c-0.803 0-1.455-0.651-1.455-1.455s0.651-1.455 1.455-1.455v0z"></path>
</svg>
