<!-- Generated by IcoMoon.io -->
<svg version="1.1" xmlns="http://www.w3.org/2000/svg" width="32" height="32" viewBox="0 0 32 32">
<title>instagram</title>
<path d="M28.089 31.763h-22.756c-2.095 0-3.793-1.698-3.793-3.793v0-22.756c0-2.095 1.698-3.793 3.793-3.793v0h22.756c2.095 0 3.793 1.698 3.793 3.793v0 22.756c0 2.095-1.698 3.793-3.793 3.793v0zM16.711 10.714c-2.35 0.001-4.378 1.383-5.316 3.377l-0.015 0.036h-0.006l-0.026 0.064c-0.041 0.086-0.092 0.212-0.139 0.34l-0.013 0.041c-0.024 0.063-0.047 0.123-0.068 0.185-0.031 0.091-0.070 0.226-0.104 0.362l-0.009 0.041c-0.017 0.063-0.036 0.126-0.050 0.19-0.024 0.108-0.049 0.256-0.069 0.406l-0.003 0.030c-0.008 0.059-0.020 0.117-0.027 0.178-0.022 0.192-0.035 0.415-0.035 0.64 0 3.247 2.632 5.879 5.879 5.879s5.879-2.632 5.879-5.879c0-0.226-0.013-0.448-0.037-0.667l0.002 0.027c-0.006-0.060-0.018-0.119-0.026-0.178-0.023-0.18-0.048-0.328-0.079-0.475l0.007 0.039c-0.014-0.064-0.033-0.127-0.050-0.19-0.043-0.177-0.081-0.312-0.124-0.445l0.012 0.042c-0.020-0.062-0.045-0.122-0.068-0.185-0.060-0.168-0.111-0.293-0.167-0.416l0.015 0.037-0.026-0.066h-0.006c-0.954-2.030-2.981-3.411-5.331-3.412h-0zM28.468 6.353c0-0.838-0.679-1.517-1.517-1.517v0h-3.034c-0.838 0-1.517 0.679-1.517 1.517v3.034c0 0.838 0.679 1.517 1.517 1.517h3.034c0.838 0 1.517-0.679 1.517-1.517v0-3.034zM28.468 14.127h-2.797c0.211 0.739 0.333 1.588 0.333 2.465 0 5.132-4.16 9.292-9.292 9.292-0 0-0.001 0-0.001 0h0c-0 0-0.001 0-0.001 0-5.132 0-9.292-4.16-9.292-9.292 0-0.877 0.122-1.726 0.349-2.531l-0.016 0.065h-2.797v12.705c0 0.838 0.679 1.517 1.517 1.517h20.48c0.838 0 1.517-0.679 1.517-1.517v0-12.705z"></path>
</svg>
