<!-- Generated by IcoMoon.io -->
<svg version="1.1" xmlns="http://www.w3.org/2000/svg" width="32" height="32" viewBox="0 0 32 32">
<title>line-graph</title>
<path d="M30.545 32.97h-28.121c-0.803 0-1.455-0.651-1.455-1.455v0-28.121c0-0.803 0.651-1.455 1.455-1.455v0h28.121c0.803 0 1.455 0.651 1.455 1.455v0 28.121c0 0.803-0.651 1.455-1.455 1.455v0zM29.091 4.848h-25.212v25.212h25.212v-25.212zM6.027 17.686v-0.002l3.879-2.422c0.216-0.135 0.478-0.215 0.759-0.215 0.001 0 0.002 0 0.003 0h-0c0.302 0 0.582 0.092 0.815 0.249l0.006-0.008 6.429 4.286 7.407-5.228c0.233-0.165 0.522-0.263 0.834-0.263 0.803 0 1.455 0.651 1.455 1.455 0 0.473-0.226 0.893-0.575 1.158l-0.004 0.003-8.242 5.818c-0.236 0.173-0.532 0.277-0.852 0.277-0.313 0-0.603-0.099-0.84-0.268l0.004 0.003-6.455-4.303-3.040 1.901c-0.214 0.131-0.474 0.209-0.751 0.209-0.803 0-1.455-0.651-1.455-1.455 0-0.492 0.245-0.928 0.619-1.191l0.005-0.003z"></path>
</svg>
