<!-- Generated by IcoMoon.io -->
<svg version="1.1" xmlns="http://www.w3.org/2000/svg" width="32" height="32" viewBox="0 0 32 32">
<title>magnifying-glass</title>
<path d="M30.85 26.919c0.503 0.503 0.814 1.198 0.814 1.965 0 1.535-1.244 2.78-2.78 2.78-0.768 0-1.462-0.311-1.965-0.814l-8.145-8.145c-1.654 0.977-3.577 1.548-5.637 1.548-6.139 0-11.116-4.977-11.116-11.116s4.977-11.116 11.116-11.116c6.139 0 11.116 4.977 11.116 11.116v0c-0.001 2.080-0.577 4.026-1.577 5.687l0.028-0.050 8.147 8.145zM13.137 4.798c-4.604 0-8.337 3.733-8.337 8.337s3.733 8.337 8.337 8.337v0c4.604 0 8.337-3.733 8.337-8.337s-3.733-8.337-8.337-8.337v0z"></path>
</svg>
