<!-- Generated by IcoMoon.io -->
<svg version="1.1" xmlns="http://www.w3.org/2000/svg" width="32" height="32" viewBox="0 0 32 32">
<title>pinterest</title>
<path d="M14.874 21.16c-0.247 0.987-0.497 2.022-0.755 3.034-0.255 0.998-0.48 2.010-0.851 2.927-0.615 1.518-1.396 2.987-2.421 4.173-0.681 0.791-0.537 0.474-0.742 0.433-0.156-0.033-0.169-0.186-0.201-0.409-0.166-1.207-0.052-2.601 0.009-3.959 0.071-1.544 0.396-2.829 0.698-4.113 0.574-2.446 1.121-4.844 1.701-7.305 0.038-0.164 0.142-0.434 0.107-0.527-0.263-0.684-0.434-1.298-0.508-2.015-0.024-0.21-0.038-0.453-0.038-0.699 0-0.57 0.074-1.123 0.214-1.65l-0.010 0.045c0.327-1.254 1.081-2.364 2.244-2.771 0.74-0.256 1.559-0.14 2.056 0.156 0.512 0.307 0.864 0.791 1.028 1.477 0.175 0.729 0.046 1.6-0.095 2.241-0.316 1.445-0.732 2.529-1.111 3.923-0.187 0.691-0.399 1.401-0.225 2.148 0.162 0.685 0.519 1.157 1.005 1.511 0.505 0.367 1.102 0.569 1.926 0.539 1.455-0.051 2.466-0.981 3.142-1.858 1.082-1.404 1.736-3.3 1.985-5.554 0.079-0.728 0.139-1.563 0.083-2.387-0.104-1.522-0.581-2.746-1.336-3.694-0.718-0.904-1.737-1.624-2.977-2.027-1.229-0.403-2.93-0.536-4.441-0.277-2.747 0.471-4.684 2.031-5.825 4.187-0.625 1.145-0.992 2.509-0.992 3.958 0 0.029 0 0.059 0 0.088l-0-0.004c0 1.244 0.308 2.21 0.804 2.963 0.158 0.238 0.389 0.435 0.543 0.708 0.219 0.386-0.033 0.961-0.142 1.38-0.13 0.504-0.142 1.199-0.731 1.211-0.244 0.005-0.55-0.173-0.756-0.288-1.547-0.855-2.485-2.409-2.871-4.425-0.112-0.577-0.175-1.24-0.175-1.919s0.064-1.342 0.186-1.985l-0.010 0.066c0.225-1.146 0.645-2.202 1.111-3.059 0.975-1.768 2.368-3.2 4.049-4.195l0.051-0.028c1.323-0.782 2.815-1.331 4.631-1.595 0.547-0.077 1.204-0.133 1.87-0.156l0.032-0.001c0.154-0.007 0.335-0.012 0.517-0.012 1.669 0 3.254 0.358 4.682 1.001l-0.072-0.029c1.387 0.62 2.562 1.479 3.524 2.535l0.008 0.008c0.993 1.084 1.716 2.347 2.174 3.922 0.239 0.82 0.472 1.697 0.472 2.711 0 1.017-0.215 1.912-0.365 2.807-0.562 3.352-2.156 6.093-4.549 7.654-0.598 0.396-1.288 0.723-2.023 0.944l-0.056 0.014c-0.791 0.23-1.692 0.403-2.658 0.335-0.87-0.051-1.673-0.298-2.377-0.698l0.027 0.014c-0.64-0.361-1.178-0.805-1.56-1.474z"></path>
</svg>
