<!-- Generated by IcoMoon.io -->
<svg version="1.1" xmlns="http://www.w3.org/2000/svg" width="32" height="32" viewBox="0 0 32 32">
<title>shopping-cart</title>
<path d="M31.539 11.222h0.002l-4.168 9.263c-0.21 0.46-0.65 0.781-1.17 0.817l-0.004 0-12.005 0.8 0.694 1.981h13.071c1.535 0 2.779 1.244 2.779 2.779s-1.244 2.779-2.779 2.779c-1.535 0-2.779-1.244-2.779-2.779v0h-12.968c0 0 0 0.001 0 0.002 0 1.535-1.244 2.779-2.779 2.779s-2.779-1.244-2.779-2.779c0-1.535 1.244-2.779 2.779-2.779h2.509l-5.346-15.284h-3.183c-0.767 0-1.389-0.622-1.389-1.389s0.622-1.389 1.389-1.389v0h4.167c0.606 0 1.117 0.391 1.307 0.931h0.005l0.808 2.311h20.574c0.766 0.002 1.387 0.623 1.387 1.389 0 0.206-0.045 0.402-0.126 0.578l0.004-0.009zM10.671 12.042l2.57 7.338 11.939-0.797 2.944-6.541h-17.452z"></path>
</svg>
