<!-- Generated by IcoMoon.io -->
<svg version="1.1" xmlns="http://www.w3.org/2000/svg" width="32" height="32" viewBox="0 0 32 32">
<title>twitter</title>
<path d="M21.941 4.268c2.411-0.043 3.694 0.836 4.919 1.952 1.042-0.089 2.394-0.67 3.191-1.075l0.774-0.423c-0.455 1.229-1.071 2.193-2.020 2.923-0.211 0.161-0.42 0.38-0.684 0.484v0.015c1.351-0.013 2.465-0.623 3.524-0.954v0.015c-0.556 0.883-1.308 1.78-2.111 2.423l-0.972 0.772c0.018 1.431-0.021 2.796-0.288 3.998-1.555 6.987-5.675 11.73-12.196 13.762-2.341 0.729-6.124 1.029-8.806 0.363-1.331-0.329-2.533-0.703-3.66-1.196-0.693-0.301-1.272-0.605-1.826-0.945l0.063 0.036-0.546-0.332c0.604 0.018 1.313 0.185 1.989 0.075 0.613-0.098 1.212-0.072 1.778-0.196 1.408-0.309 2.658-0.718 3.735-1.349 0.523-0.306 1.316-0.664 1.687-1.105-0.699 0.012-1.333-0.151-1.852-0.333-2.015-0.711-3.186-2.018-3.949-3.982 0.61 0.068 2.368 0.225 2.779-0.121-0.768-0.043-1.506-0.487-2.035-0.818-1.62-1.013-2.94-2.713-2.931-5.329l0.638 0.302c0.408 0.172 0.821 0.263 1.306 0.364 0.205 0.043 0.616 0.162 0.851 0.075h-0.031c-0.313-0.364-0.824-0.607-1.138-0.999-1.041-1.292-2.015-3.278-1.399-5.646 0.173-0.617 0.401-1.155 0.687-1.656l-0.019 0.035 0.031 0.014c0.121 0.254 0.391 0.44 0.562 0.652 0.531 0.658 1.185 1.249 1.852 1.771 2.273 1.778 4.32 2.871 7.609 3.679 0.833 0.206 1.797 0.363 2.793 0.364-0.28-0.814-0.19-2.133 0.030-2.921 0.555-1.984 1.758-3.413 3.524-4.179 0.392-0.169 0.854-0.315 1.333-0.416l0.049-0.009 0.759-0.090z"></path>
</svg>
