<svg xmlns="http://www.w3.org/2000/svg"><defs><symbol id="icon-facebook" viewBox="0 0 32 32"><path d="M23.218 2.606v4.883s-3.601-.358-4.503 1.022c-.493.754-.2 2.963-.244 4.549h4.776c-.404 1.854-.693 3.11-.991 4.715h-3.812V32.95h-6.617V17.834H9.013v-4.773h2.784c.142-3.492.196-6.95 1.931-8.711 1.948-1.979 3.808-1.742 9.487-1.742z"/></symbol><symbol id="icon-instagram" viewBox="0 0 32 32"><path d="M28.089 31.763H5.333A3.793 3.793 0 0 1 1.54 27.97V5.214a3.793 3.793 0 0 1 3.793-3.793h22.756a3.793 3.793 0 0 1 3.793 3.793V27.97a3.793 3.793 0 0 1-3.793 3.793zM16.711 10.714a5.876 5.876 0 0 0-5.316 3.377l-.015.036h-.006l-.026.064a4.32 4.32 0 0 0-.139.34l-.013.041c-.024.063-.047.123-.068.185a4.92 4.92 0 0 0-.104.362l-.009.041c-.017.063-.036.126-.05.19a5.122 5.122 0 0 0-.069.406l-.003.03c-.008.059-.02.117-.027.178a5.879 5.879 0 1 0 11.686-.027l.002.027c-.006-.06-.018-.119-.026-.178a5.797 5.797 0 0 0-.079-.475l.007.039c-.014-.064-.033-.127-.05-.19a5.997 5.997 0 0 0-.124-.445l.012.042c-.02-.062-.045-.122-.068-.185a5.107 5.107 0 0 0-.167-.416l.015.037-.026-.066h-.006c-.954-2.03-2.981-3.411-5.331-3.412zm11.757-4.361c0-.838-.679-1.517-1.517-1.517h-3.034c-.838 0-1.517.679-1.517 1.517v3.034c0 .838.679 1.517 1.517 1.517h3.034c.838 0 1.517-.679 1.517-1.517V6.353zm0 7.774h-2.797c.211.739.333 1.588.333 2.465a9.292 9.292 0 0 1-9.292 9.292h-.002a9.292 9.292 0 0 1-8.943-11.823l-.016.065H4.954v12.705c0 .838.679 1.517 1.517 1.517h20.48c.838 0 1.517-.679 1.517-1.517V14.126z"/></symbol><symbol id="icon-magnifying-glass" viewBox="0 0 32 32"><path d="M30.85 26.919a2.78 2.78 0 0 1-3.931 3.931l-8.145-8.145a11.046 11.046 0 0 1-5.637 1.548c-6.139 0-11.116-4.977-11.116-11.116S6.998 2.021 13.137 2.021c6.139 0 11.116 4.977 11.116 11.116a11.002 11.002 0 0 1-1.577 5.687l.028-.05 8.147 8.145zM13.137 4.798a8.338 8.338 0 0 0 0 16.674 8.338 8.338 0 0 0 0-16.674z"/></symbol><symbol id="icon-pinterest" viewBox="0 0 32 32"><path d="M14.874 21.16c-.247.987-.497 2.022-.755 3.034-.255.998-.48 2.01-.851 2.927-.615 1.518-1.396 2.987-2.421 4.173-.681.791-.537.474-.742.433-.156-.033-.169-.186-.201-.409-.166-1.207-.052-2.601.009-3.959.071-1.544.396-2.829.698-4.113.574-2.446 1.121-4.844 1.701-7.305.038-.164.142-.434.107-.527-.263-.684-.434-1.298-.508-2.015a6.418 6.418 0 0 1 .176-2.349l-.01.045c.327-1.254 1.081-2.364 2.244-2.771.74-.256 1.559-.14 2.056.156.512.307.864.791 1.028 1.477.175.729.046 1.6-.095 2.241-.316 1.445-.732 2.529-1.111 3.923-.187.691-.399 1.401-.225 2.148a2.504 2.504 0 0 0 1.005 1.511c.505.367 1.102.569 1.926.539 1.455-.051 2.466-.981 3.142-1.858 1.082-1.404 1.736-3.3 1.985-5.554.079-.728.139-1.563.083-2.387-.104-1.522-.581-2.746-1.336-3.694-.718-.904-1.737-1.624-2.977-2.027-1.229-.403-2.93-.536-4.441-.277-2.747.471-4.684 2.031-5.825 4.187a8.282 8.282 0 0 0-.992 3.958v.088-.004c0 1.244.308 2.21.804 2.963.158.238.389.435.543.708.219.386-.033.961-.142 1.38-.13.504-.142 1.199-.731 1.211-.244.005-.55-.173-.756-.288-1.547-.855-2.485-2.409-2.871-4.425a10.637 10.637 0 0 1 .011-3.904l-.01.066a10.898 10.898 0 0 1 1.111-3.059 11.04 11.04 0 0 1 4.049-4.195l.051-.028c1.323-.782 2.815-1.331 4.631-1.595a18.398 18.398 0 0 1 1.87-.156l.032-.001a11.375 11.375 0 0 1 5.199.989l-.072-.029a10.543 10.543 0 0 1 3.524 2.535l.008.008c.993 1.084 1.716 2.347 2.174 3.922.239.82.472 1.697.472 2.711 0 1.017-.215 1.912-.365 2.807-.562 3.352-2.156 6.093-4.549 7.654a7.711 7.711 0 0 1-2.023.944l-.056.014c-.791.23-1.692.403-2.658.335a5.43 5.43 0 0 1-2.377-.698l.027.014c-.64-.361-1.178-.805-1.56-1.474z"/></symbol><symbol id="icon-shopping-cart" viewBox="0 0 32 32"><path d="M31.539 11.222h.002l-4.168 9.263c-.21.46-.65.781-1.17.817h-.004l-12.005.8.694 1.981h13.071a2.779 2.779 0 1 1-2.779 2.779H12.212v.002a2.779 2.779 0 1 1-2.779-2.779h2.509L6.596 8.801H3.413a1.39 1.39 0 0 1 0-2.778H7.58c.606 0 1.117.391 1.307.931h.005L9.7 9.265h20.574a1.39 1.39 0 0 1 1.261 1.967l.004-.009zm-20.868.82l2.57 7.338 11.939-.797 2.944-6.541H10.672z"/></symbol><symbol id="icon-twitter" viewBox="0 0 32 32"><path d="M21.941 4.268c2.411-.043 3.694.836 4.919 1.952 1.042-.089 2.394-.67 3.191-1.075l.774-.423c-.455 1.229-1.071 2.193-2.02 2.923-.211.161-.42.38-.684.484v.015c1.351-.013 2.465-.623 3.524-.954v.015c-.556.883-1.308 1.78-2.111 2.423l-.972.772c.018 1.431-.021 2.796-.288 3.998-1.555 6.987-5.675 11.73-12.196 13.762-2.341.729-6.124 1.029-8.806.363-1.331-.329-2.533-.703-3.66-1.196a14.3 14.3 0 0 1-1.826-.945l.063.036-.546-.332c.604.018 1.313.185 1.989.075.613-.098 1.212-.072 1.778-.196 1.408-.309 2.658-.718 3.735-1.349.523-.306 1.316-.664 1.687-1.105-.699.012-1.333-.151-1.852-.333-2.015-.711-3.186-2.018-3.949-3.982.61.068 2.368.225 2.779-.121-.768-.043-1.506-.487-2.035-.818-1.62-1.013-2.94-2.713-2.931-5.329l.638.302c.408.172.821.263 1.306.364.205.043.616.162.851.075h-.031c-.313-.364-.824-.607-1.138-.999-1.041-1.292-2.015-3.278-1.399-5.646a7.222 7.222 0 0 1 .687-1.656l-.019.035.031.014c.121.254.391.44.562.652.531.658 1.185 1.249 1.852 1.771 2.273 1.778 4.32 2.871 7.609 3.679.833.206 1.797.363 2.793.364-.28-.814-.19-2.133.03-2.921.555-1.984 1.758-3.413 3.524-4.179a7.165 7.165 0 0 1 1.333-.416l.049-.009.759-.09z"/></symbol></defs></svg>