<svg xmlns="http://www.w3.org/2000/svg">
<defs>

<symbol id="icon-facebook" viewBox="0 0 32 32">
<title>facebook</title>
<path d="M23.218 2.606v4.883s-3.601-0.358-4.503 1.022c-0.493 0.754-0.2 2.963-0.244 4.549h4.776c-0.404 1.854-0.693 3.11-0.991 4.715h-3.812v15.175h-6.617v-15.116h-2.814v-4.773h2.784c0.142-3.492 0.196-6.95 1.931-8.711 1.948-1.979 3.808-1.742 9.487-1.742z"></path>
</symbol>

<symbol id="icon-instagram" viewBox="0 0 32 32">
<title>instagram</title>
<path d="M28.089 31.763h-22.756c-2.095 0-3.793-1.698-3.793-3.793v0-22.756c0-2.095 1.698-3.793 3.793-3.793v0h22.756c2.095 0 3.793 1.698 3.793 3.793v0 22.756c0 2.095-1.698 3.793-3.793 3.793v0zM16.711 10.714c-2.35 0.001-4.378 1.383-5.316 3.377l-0.015 0.036h-0.006l-0.026 0.064c-0.041 0.086-0.092 0.212-0.139 0.34l-0.013 0.041c-0.024 0.063-0.047 0.123-0.068 0.185-0.031 0.091-0.070 0.226-0.104 0.362l-0.009 0.041c-0.017 0.063-0.036 0.126-0.050 0.19-0.024 0.108-0.049 0.256-0.069 0.406l-0.003 0.030c-0.008 0.059-0.020 0.117-0.027 0.178-0.022 0.192-0.035 0.415-0.035 0.64 0 3.247 2.632 5.879 5.879 5.879s5.879-2.632 5.879-5.879c0-0.226-0.013-0.448-0.037-0.667l0.002 0.027c-0.006-0.060-0.018-0.119-0.026-0.178-0.023-0.18-0.048-0.328-0.079-0.475l0.007 0.039c-0.014-0.064-0.033-0.127-0.050-0.19-0.043-0.177-0.081-0.312-0.124-0.445l0.012 0.042c-0.020-0.062-0.045-0.122-0.068-0.185-0.060-0.168-0.111-0.293-0.167-0.416l0.015 0.037-0.026-0.066h-0.006c-0.954-2.030-2.981-3.411-5.331-3.412h-0zM28.468 6.353c0-0.838-0.679-1.517-1.517-1.517v0h-3.034c-0.838 0-1.517 0.679-1.517 1.517v3.034c0 0.838 0.679 1.517 1.517 1.517h3.034c0.838 0 1.517-0.679 1.517-1.517v0-3.034zM28.468 14.127h-2.797c0.211 0.739 0.333 1.588 0.333 2.465 0 5.132-4.16 9.292-9.292 9.292-0 0-0.001 0-0.001 0h0c-0 0-0.001 0-0.001 0-5.132 0-9.292-4.16-9.292-9.292 0-0.877 0.122-1.726 0.349-2.531l-0.016 0.065h-2.797v12.705c0 0.838 0.679 1.517 1.517 1.517h20.48c0.838 0 1.517-0.679 1.517-1.517v0-12.705z"></path>
</symbol>

<symbol id="icon-magnifying-glass" viewBox="0 0 32 32">
<title>magnifying-glass</title>
<path d="M30.85 26.919c0.503 0.503 0.814 1.198 0.814 1.965 0 1.535-1.244 2.78-2.78 2.78-0.768 0-1.462-0.311-1.965-0.814l-8.145-8.145c-1.654 0.977-3.577 1.548-5.637 1.548-6.139 0-11.116-4.977-11.116-11.116s4.977-11.116 11.116-11.116c6.139 0 11.116 4.977 11.116 11.116v0c-0.001 2.080-0.577 4.026-1.577 5.687l0.028-0.050 8.147 8.145zM13.137 4.798c-4.604 0-8.337 3.733-8.337 8.337s3.733 8.337 8.337 8.337v0c4.604 0 8.337-3.733 8.337-8.337s-3.733-8.337-8.337-8.337v0z"></path>
</symbol>

<symbol id="icon-pinterest" viewBox="0 0 32 32">
<title>pinterest</title>
<path d="M14.874 21.16c-0.247 0.987-0.497 2.022-0.755 3.034-0.255 0.998-0.48 2.010-0.851 2.927-0.615 1.518-1.396 2.987-2.421 4.173-0.681 0.791-0.537 0.474-0.742 0.433-0.156-0.033-0.169-0.186-0.201-0.409-0.166-1.207-0.052-2.601 0.009-3.959 0.071-1.544 0.396-2.829 0.698-4.113 0.574-2.446 1.121-4.844 1.701-7.305 0.038-0.164 0.142-0.434 0.107-0.527-0.263-0.684-0.434-1.298-0.508-2.015-0.024-0.21-0.038-0.453-0.038-0.699 0-0.57 0.074-1.123 0.214-1.65l-0.010 0.045c0.327-1.254 1.081-2.364 2.244-2.771 0.74-0.256 1.559-0.14 2.056 0.156 0.512 0.307 0.864 0.791 1.028 1.477 0.175 0.729 0.046 1.6-0.095 2.241-0.316 1.445-0.732 2.529-1.111 3.923-0.187 0.691-0.399 1.401-0.225 2.148 0.162 0.685 0.519 1.157 1.005 1.511 0.505 0.367 1.102 0.569 1.926 0.539 1.455-0.051 2.466-0.981 3.142-1.858 1.082-1.404 1.736-3.3 1.985-5.554 0.079-0.728 0.139-1.563 0.083-2.387-0.104-1.522-0.581-2.746-1.336-3.694-0.718-0.904-1.737-1.624-2.977-2.027-1.229-0.403-2.93-0.536-4.441-0.277-2.747 0.471-4.684 2.031-5.825 4.187-0.625 1.145-0.992 2.509-0.992 3.958 0 0.029 0 0.059 0 0.088l-0-0.004c0 1.244 0.308 2.21 0.804 2.963 0.158 0.238 0.389 0.435 0.543 0.708 0.219 0.386-0.033 0.961-0.142 1.38-0.13 0.504-0.142 1.199-0.731 1.211-0.244 0.005-0.55-0.173-0.756-0.288-1.547-0.855-2.485-2.409-2.871-4.425-0.112-0.577-0.175-1.24-0.175-1.919s0.064-1.342 0.186-1.985l-0.010 0.066c0.225-1.146 0.645-2.202 1.111-3.059 0.975-1.768 2.368-3.2 4.049-4.195l0.051-0.028c1.323-0.782 2.815-1.331 4.631-1.595 0.547-0.077 1.204-0.133 1.87-0.156l0.032-0.001c0.154-0.007 0.335-0.012 0.517-0.012 1.669 0 3.254 0.358 4.682 1.001l-0.072-0.029c1.387 0.62 2.562 1.479 3.524 2.535l0.008 0.008c0.993 1.084 1.716 2.347 2.174 3.922 0.239 0.82 0.472 1.697 0.472 2.711 0 1.017-0.215 1.912-0.365 2.807-0.562 3.352-2.156 6.093-4.549 7.654-0.598 0.396-1.288 0.723-2.023 0.944l-0.056 0.014c-0.791 0.23-1.692 0.403-2.658 0.335-0.87-0.051-1.673-0.298-2.377-0.698l0.027 0.014c-0.64-0.361-1.178-0.805-1.56-1.474z"></path>
</symbol>

<symbol id="icon-shopping-cart" viewBox="0 0 32 32">
<title>shopping-cart</title>
<path d="M31.539 11.222h0.002l-4.168 9.263c-0.21 0.46-0.65 0.781-1.17 0.817l-0.004 0-12.005 0.8 0.694 1.981h13.071c1.535 0 2.779 1.244 2.779 2.779s-1.244 2.779-2.779 2.779c-1.535 0-2.779-1.244-2.779-2.779v0h-12.968c0 0 0 0.001 0 0.002 0 1.535-1.244 2.779-2.779 2.779s-2.779-1.244-2.779-2.779c0-1.535 1.244-2.779 2.779-2.779h2.509l-5.346-15.284h-3.183c-0.767 0-1.389-0.622-1.389-1.389s0.622-1.389 1.389-1.389v0h4.167c0.606 0 1.117 0.391 1.307 0.931h0.005l0.808 2.311h20.574c0.766 0.002 1.387 0.623 1.387 1.389 0 0.206-0.045 0.402-0.126 0.578l0.004-0.009zM10.671 12.042l2.57 7.338 11.939-0.797 2.944-6.541h-17.452z"></path>
</symbol>

<symbol id="icon-twitter" viewBox="0 0 32 32">
<title>twitter</title>
<path d="M21.941 4.268c2.411-0.043 3.694 0.836 4.919 1.952 1.042-0.089 2.394-0.67 3.191-1.075l0.774-0.423c-0.455 1.229-1.071 2.193-2.020 2.923-0.211 0.161-0.42 0.38-0.684 0.484v0.015c1.351-0.013 2.465-0.623 3.524-0.954v0.015c-0.556 0.883-1.308 1.78-2.111 2.423l-0.972 0.772c0.018 1.431-0.021 2.796-0.288 3.998-1.555 6.987-5.675 11.73-12.196 13.762-2.341 0.729-6.124 1.029-8.806 0.363-1.331-0.329-2.533-0.703-3.66-1.196-0.693-0.301-1.272-0.605-1.826-0.945l0.063 0.036-0.546-0.332c0.604 0.018 1.313 0.185 1.989 0.075 0.613-0.098 1.212-0.072 1.778-0.196 1.408-0.309 2.658-0.718 3.735-1.349 0.523-0.306 1.316-0.664 1.687-1.105-0.699 0.012-1.333-0.151-1.852-0.333-2.015-0.711-3.186-2.018-3.949-3.982 0.61 0.068 2.368 0.225 2.779-0.121-0.768-0.043-1.506-0.487-2.035-0.818-1.62-1.013-2.94-2.713-2.931-5.329l0.638 0.302c0.408 0.172 0.821 0.263 1.306 0.364 0.205 0.043 0.616 0.162 0.851 0.075h-0.031c-0.313-0.364-0.824-0.607-1.138-0.999-1.041-1.292-2.015-3.278-1.399-5.646 0.173-0.617 0.401-1.155 0.687-1.656l-0.019 0.035 0.031 0.014c0.121 0.254 0.391 0.44 0.562 0.652 0.531 0.658 1.185 1.249 1.852 1.771 2.273 1.778 4.32 2.871 7.609 3.679 0.833 0.206 1.797 0.363 2.793 0.364-0.28-0.814-0.19-2.133 0.030-2.921 0.555-1.984 1.758-3.413 3.524-4.179 0.392-0.169 0.854-0.315 1.333-0.416l0.049-0.009 0.759-0.090z"></path>
</symbol>
</defs>
</svg>
